<?xml version="1.0" encoding="UTF-8"?>
<svg width="638px" height="70px" viewBox="0 0 638 70" version="1.1" xmlns="http://www.w3.org/2000/svg" xmlns:xlink="http://www.w3.org/1999/xlink">
    <title>Group</title>
    <g id="outlined-centered-name+logo" stroke="none" stroke-width="1" fill="none" fill-rule="evenodd">
        <g id="Group" transform="translate(0.901855, 0.629818)" fill-rule="nonzero">
            <path d="M390.71582,51.3701818 C390.774414,51.3701818 390.803711,51.3311193 390.803711,51.2529943 L390.803711,51.2529943 L390.803711,50.9014318 C390.803711,50.8233068 390.774414,50.7842443 390.71582,50.7842443 C390.40332,50.7842443 390.105469,50.7598303 389.822266,50.7110021 C388.835937,50.5449865 388.28418,50.1836584 388.166992,49.6270178 L388.166992,49.6270178 L388.166992,49.0264318 C388.166992,48.0889318 388.28418,45.7256506 388.518555,41.9365881 C388.75293,38.1475256 388.870117,36.0283849 388.870117,35.5791662 C388.870117,35.3643224 388.896973,35.2569006 388.950684,35.2569006 C389.004395,35.2569006 389.060547,35.3252599 389.119141,35.4619787 L389.119141,35.4619787 L396.296875,51.2529943 C396.326172,51.3311193 396.433594,51.3701818 396.619141,51.3701818 C396.804687,51.3701818 396.916992,51.3360021 396.956055,51.2676428 L396.956055,51.2676428 L404.236328,35.505924 C404.265625,35.4180334 404.302246,35.3740881 404.346191,35.3740881 C404.390137,35.3740881 404.416992,35.4229162 404.426758,35.5205724 L404.426758,35.5205724 L405.203125,49.5098303 C405.203125,50.3594396 404.329102,50.7842443 402.581055,50.7842443 C402.50293,50.7842443 402.463867,50.8233068 402.463867,50.9014318 L402.463867,50.9014318 L402.463867,51.2529943 C402.463867,51.3311193 402.50293,51.3701818 402.581055,51.3701818 L402.581055,51.3701818 L410.901367,51.3701818 C410.979492,51.3701818 411.018555,51.3311193 411.018555,51.2529943 L411.018555,51.2529943 L411.018555,50.9014318 C411.018555,50.8233068 410.979492,50.7842443 410.901367,50.7842443 C410.081055,50.7842443 409.416992,50.6279943 408.90918,50.3154943 C408.401367,50.0029943 408.137695,49.5928381 408.118164,49.0850256 L408.118164,49.0850256 L407.239258,32.8985021 C407.239258,32.3223303 407.566406,31.8877599 408.220703,31.5947912 C408.650391,31.3994787 409.011719,31.3018224 409.304687,31.3018224 C409.353516,31.3018224 409.37793,31.2627599 409.37793,31.1846349 L409.37793,31.1846349 L409.37793,30.8330724 C409.37793,30.7549474 409.338867,30.7158849 409.260742,30.7158849 L409.260742,30.7158849 L404.998047,30.7158849 C404.832031,30.7158849 404.646484,30.9111974 404.441406,31.3018224 L404.441406,31.3018224 L397.644531,46.3311193 C397.585937,46.4971349 397.498047,46.5825842 397.380859,46.587467 C397.263672,46.5923498 397.19043,46.5703771 397.161133,46.521549 C397.131836,46.4727209 397.092773,46.4141271 397.043945,46.3457678 L397.043945,46.3457678 L390.173828,31.0381506 C390.056641,30.8526037 389.905273,30.7451818 389.719727,30.7158849 L389.719727,30.7158849 L385.486328,30.7158849 C385.408203,30.7158849 385.369141,30.7549474 385.369141,30.8330724 L385.369141,30.8330724 L385.369141,31.1846349 C385.369141,31.2627599 385.47168,31.3018224 385.676758,31.3018224 C385.881836,31.3018224 386.206543,31.4336584 386.650879,31.6973303 C387.095215,31.9610021 387.317383,32.2881506 387.317383,32.6787756 L387.317383,32.6787756 L387.317383,33.2207678 C387.317383,35.1250646 387.209961,37.6177404 386.995117,40.6987951 C386.780273,43.7798498 386.650879,45.7866857 386.606934,46.7193029 C386.589355,47.0923498 386.572168,47.4228185 386.555371,47.7107092 L386.530469,48.1106115 C386.514062,48.355924 386.498047,48.5586584 386.482422,48.7188146 C386.345703,50.0957678 385.476562,50.7842443 383.875,50.7842443 C383.796875,50.7842443 383.757812,50.8233068 383.757812,50.9014318 L383.757812,50.9014318 L383.757812,51.2529943 C383.757812,51.3311193 383.796875,51.3701818 383.875,51.3701818 L383.875,51.3701818 L390.71582,51.3701818 Z M434.949219,51.7656896 C435.730469,51.7656896 436.624023,51.6192053 437.629883,51.3262365 C438.635742,51.0332678 439.563477,50.6279943 440.413086,50.1104162 C442.131836,49.0557287 443.484375,47.6763342 444.470703,45.9722326 C445.457031,44.268131 445.950195,42.471256 445.950195,40.5816076 C445.950195,38.6919592 445.452148,36.9365881 444.456055,35.3154943 C443.459961,33.6944006 442.136719,32.4199865 440.486328,31.4922521 C438.835937,30.5645178 436.968262,30.1006506 434.883301,30.1006506 C432.79834,30.1006506 430.850098,30.5791662 429.038574,31.5361974 C427.227051,32.4932287 425.808594,33.7944982 424.783203,35.440006 C423.757812,37.0855138 423.245117,38.9092443 423.245117,40.9111974 C423.245117,43.6846349 424.016602,45.974674 425.55957,47.7813146 C426.770508,49.1973303 428.37207,50.2666662 430.364258,50.9893224 C431.819336,51.5069006 433.347656,51.7656896 434.949219,51.7656896 Z M435.125,50.6817053 C433.367187,50.6817053 431.819336,50.1787756 430.481445,49.1729162 C429.143555,48.1670568 428.115723,46.8657873 427.397949,45.2691076 C426.680176,43.6724279 426.321289,42.0635412 426.321289,40.4424474 C426.321289,38.8213537 426.619141,37.3076818 427.214844,35.9014318 C427.507812,35.2178381 427.874023,34.5830724 428.313477,33.9971349 C428.75293,33.4111974 429.260742,32.9058263 429.836914,32.4810217 C430.413086,32.056217 431.055176,31.7217443 431.763184,31.4776037 C432.471191,31.2334631 433.379395,31.1113928 434.487793,31.1113928 C435.596191,31.1113928 436.694824,31.3970373 437.783691,31.9683263 C438.872559,32.5396154 439.792969,33.2988928 440.544922,34.2461584 C442.087891,36.1895178 442.859375,38.5039709 442.859375,41.1895178 C442.859375,43.8750646 442.229492,46.0820959 440.969727,47.8106115 C439.573242,49.724674 437.625,50.6817053 435.125,50.6817053 Z M470.745117,51.7656896 C471.838867,51.7656896 472.9375,51.5557287 474.041016,51.1358068 C477.322266,49.9053381 478.962891,47.146549 478.962891,42.8594396 L478.962891,42.8594396 L478.962891,33.2647131 C478.962891,33.1182287 478.987305,32.9619787 479.036133,32.7959631 C479.319336,31.7998693 480.100586,31.3018224 481.379883,31.3018224 C481.594727,31.3018224 481.702148,31.2627599 481.702148,31.1846349 L481.702148,31.1846349 L481.702148,30.8330724 C481.702148,30.7549474 481.663086,30.7158849 481.584961,30.7158849 L481.584961,30.7158849 L474.37793,30.7158849 C474.299805,30.7158849 474.260742,30.7549474 474.260742,30.8330724 L474.260742,30.8330724 L474.260742,31.1846349 C474.260742,31.2627599 474.299805,31.3018224 474.37793,31.3018224 C475.852539,31.3018224 476.799805,31.7852209 477.219727,32.7520178 C477.385742,33.1133459 477.46875,33.7578771 477.46875,34.6856115 L477.46875,34.6856115 L477.46875,44.0020178 C477.46875,45.9844396 476.802246,47.5347326 475.469238,48.6528967 C474.13623,49.7710607 472.429687,50.3301428 470.349609,50.3301428 C468.347656,50.3301428 466.707031,49.7173498 465.427734,48.4917638 C464.148437,47.2661779 463.508789,45.6865881 463.508789,43.7529943 L463.508789,43.7529943 L463.508789,33.2647131 C463.508789,31.9561193 464.329102,31.3018224 465.969727,31.3018224 C466.155273,31.3018224 466.248047,31.2627599 466.248047,31.1846349 L466.248047,31.1846349 L466.248047,30.8330724 C466.248047,30.7549474 466.208984,30.7158849 466.130859,30.7158849 L466.130859,30.7158849 L458.191406,30.7158849 C458.123047,30.7158849 458.088867,30.7549474 458.088867,30.8330724 L458.088867,30.8330724 L458.088867,31.1846349 C458.088867,31.2627599 458.191406,31.3018224 458.396484,31.3018224 C458.601562,31.3018224 458.850586,31.3408849 459.143555,31.4190099 C460.149414,31.6826818 460.652344,32.2295568 460.652344,33.0596349 L460.652344,33.0596349 L460.652344,44.7783849 C460.652344,46.3311193 461.130859,47.6348303 462.087891,48.6895178 C463.943359,50.740299 466.829102,51.7656896 470.745117,51.7656896 Z M513.784668,51.5459631 C514.004395,51.5459631 514.143555,51.4995763 514.202148,51.4068029 C514.260742,51.3140295 514.290039,51.1602209 514.290039,50.9453771 L514.290039,50.9453771 L514.290039,33.0303381 C514.290039,32.5420568 514.619629,32.1319006 515.278809,31.7998693 C515.937988,31.4678381 516.411621,31.3018224 516.699707,31.3018224 C516.987793,31.3018224 517.131836,31.2627599 517.131836,31.1846349 L517.131836,31.1846349 L517.131836,30.8330724 C517.131836,30.7549474 517.092773,30.7158849 517.014648,30.7158849 L517.014648,30.7158849 L509.397461,30.7158849 C509.319336,30.7158849 509.280273,30.7549474 509.280273,30.8330724 L509.280273,30.8330724 L509.280273,31.1846349 C509.280273,31.2627599 509.319336,31.3018224 509.397461,31.3018224 L509.397461,31.3018224 L510.144531,31.3018224 C511.121094,31.3018224 511.770508,31.599674 512.092773,32.1953771 C512.415039,32.7910803 512.576172,34.0606115 512.576172,36.0039709 L512.576172,36.0039709 L512.576172,46.0967443 C512.576172,46.1846349 512.554199,46.2285803 512.510254,46.2285803 C512.466309,46.2285803 512.43457,46.2163732 512.415039,46.1919592 C512.395508,46.1675451 512.361328,46.130924 512.3125,46.0820959 L512.3125,46.0820959 L498.411133,30.7158849 L493.049805,30.7158849 C492.97168,30.7158849 492.932617,30.7549474 492.932617,30.8330724 L492.932617,30.8330724 L492.932617,31.1846349 C492.932617,31.2627599 492.98877,31.3018224 493.101074,31.3018224 C493.213379,31.3018224 493.411133,31.3164709 493.694336,31.3457678 C494.963867,31.4727209 495.598633,31.8633459 495.598633,32.5176428 L495.598633,32.5176428 L495.598633,47.7373693 C495.598633,49.3194006 495.237305,50.2861974 494.514648,50.6377599 C494.319336,50.7354162 493.953125,50.7842443 493.416016,50.7842443 L493.416016,50.7842443 L493.079102,50.7842443 C492.981445,50.7842443 492.932617,50.8233068 492.932617,50.9014318 L492.932617,50.9014318 L492.932617,51.2529943 C492.932617,51.3311193 492.97168,51.3701818 493.049805,51.3701818 L493.049805,51.3701818 L500.666992,51.3701818 C500.745117,51.3701818 500.78418,51.3311193 500.78418,51.2529943 L500.78418,51.2529943 L500.78418,50.9014318 C500.78418,50.8233068 500.681641,50.7842443 500.476562,50.7842443 C500.271484,50.7842443 499.973633,50.7451818 499.583008,50.6670568 C498.176758,50.3838537 497.473633,49.7979162 497.473633,48.9092443 L497.473633,48.9092443 L497.473633,34.2901037 C497.473633,34.1924474 497.498047,34.1436193 497.546875,34.1436193 C497.625,34.1436193 497.712891,34.1924474 497.810547,34.2901037 L497.810547,34.2901037 L512.913086,51.0332678 C513.05957,51.1992834 513.186523,51.3262365 513.293945,51.4141271 C513.401367,51.5020178 513.564941,51.5459631 513.784668,51.5459631 Z M543.669922,51.3701818 C543.748047,51.3701818 543.787109,51.3311193 543.787109,51.2529943 L543.787109,51.2529943 L543.787109,50.9014318 C543.787109,50.8233068 543.748047,50.7842443 543.669922,50.7842443 L543.669922,50.7842443 L543.245117,50.7842443 C542.288086,50.7842443 541.519043,50.5791662 540.937988,50.1690099 C540.356934,49.7588537 540.066406,49.2803381 540.066406,48.7334631 L540.066406,48.7334631 L540.066406,32.5176428 C540.066406,32.3125646 540.10791,32.1978185 540.190918,32.1734045 C540.273926,32.1489904 540.374023,32.1270178 540.491211,32.1074865 L540.491211,32.1074865 L546.130859,32.1074865 C546.765625,32.2442053 547.229492,32.5982092 547.522461,33.1694982 C547.81543,33.7407873 548.040039,34.5147131 548.196289,35.4912756 C548.225586,35.6377599 548.279297,35.7110021 548.357422,35.7110021 L548.357422,35.7110021 L548.621094,35.7110021 C548.679688,35.7110021 548.708984,35.6914709 548.708984,35.6524084 L548.708984,35.6524084 L548.708984,35.1690099 L548.166992,30.5986974 C548.147461,30.4912756 548.120605,30.3887365 548.086426,30.2910803 C548.052246,30.193424 547.974121,30.1445959 547.852051,30.1445959 C547.72998,30.1445959 547.629883,30.1909826 547.551758,30.283756 C547.473633,30.3765295 547.390625,30.4717443 547.302734,30.5694006 C547.214844,30.6670568 546.960938,30.7158849 546.541016,30.7158849 L546.541016,30.7158849 L530.75,30.7158849 C530.310547,30.7158849 530.012695,30.6206701 529.856445,30.4302404 C529.700195,30.2398107 529.553711,30.1445959 529.416992,30.1445959 C529.280273,30.1445959 529.182617,30.2959631 529.124023,30.5986974 L529.124023,30.5986974 L528.582031,35.1690099 L528.582031,35.6524084 C528.582031,35.6914709 528.611328,35.7110021 528.669922,35.7110021 L528.669922,35.7110021 L528.933594,35.7110021 C529.011719,35.7110021 529.06543,35.6206701 529.094727,35.440006 C529.124023,35.259342 529.216797,34.8467443 529.373047,34.2022131 C529.65625,33.0010412 530.251953,32.302799 531.160156,32.1074865 L531.160156,32.1074865 L536.785156,32.1074865 C536.902344,32.1270178 537.002441,32.1489904 537.085449,32.1734045 C537.168457,32.1978185 537.209961,32.3125646 537.209961,32.5176428 L537.209961,32.5176428 L537.209961,48.7334631 C537.209961,49.2803381 536.919434,49.7588537 536.338379,50.1690099 C535.757324,50.5791662 534.988281,50.7842443 534.03125,50.7842443 L534.03125,50.7842443 L533.621094,50.7842443 C533.533203,50.7842443 533.489258,50.8233068 533.489258,50.9014318 L533.489258,50.9014318 L533.489258,51.2529943 C533.489258,51.3311193 533.52832,51.3701818 533.606445,51.3701818 L533.606445,51.3701818 L543.669922,51.3701818 Z M567.322266,51.3701818 C567.400391,51.3701818 567.439453,51.3311193 567.439453,51.2529943 L567.439453,51.2529943 L567.439453,50.9014318 C567.439453,50.8233068 567.400391,50.7842443 567.322266,50.7842443 L567.322266,50.7842443 L566.941406,50.7842443 C565.935547,50.7842443 565.134766,50.5547521 564.539062,50.0957678 C564.275391,49.8906896 564.143555,49.6611974 564.143555,49.4072912 L564.143555,49.4072912 L564.143555,49.2754553 L566.34082,42.8447912 C566.34082,42.8350256 566.355469,42.7959631 566.384766,42.7276037 C566.550781,42.4053381 566.780273,42.2442053 567.073242,42.2442053 L567.073242,42.2442053 L572.273438,42.2442053 C572.566406,42.2442053 572.771484,42.4102209 572.888672,42.7422521 C572.917969,42.8106115 572.9375,42.8545568 572.947266,42.8740881 L572.947266,42.8740881 L575.15918,49.1143224 C575.178711,49.1924474 575.188477,49.2608068 575.188477,49.3194006 C575.188477,50.0908849 574.509766,50.5498693 573.152344,50.6963537 C572.917969,50.7158849 572.620117,50.7354162 572.258789,50.7549474 C571.897461,50.7744787 571.716797,50.8233068 571.716797,50.9014318 L571.716797,50.9014318 L571.716797,51.2529943 C571.716797,51.3311193 571.755859,51.3701818 571.833984,51.3701818 L571.833984,51.3701818 L580.798828,51.3701818 C580.876953,51.3701818 580.916016,51.3311193 580.916016,51.2529943 L580.916016,51.2529943 L580.916016,50.9160803 C580.916016,50.8281896 580.876953,50.7842443 580.798828,50.7842443 C580.427734,50.7842443 580.017578,50.6719396 579.568359,50.4473303 C579.03125,50.2324865 578.645508,49.9248693 578.411133,49.5244787 C578.303711,49.3486974 578.208496,49.1533849 578.125488,48.9385412 C578.04248,48.7236974 577.932617,48.4844396 577.795898,48.2207678 L577.795898,48.2207678 L571.599609,30.8330724 C571.580078,30.7842443 571.553223,30.7549474 571.519043,30.7451818 C571.484863,30.7354162 571.458008,30.7256506 571.438477,30.7158849 L571.438477,30.7158849 L568.508789,30.7158849 C568.469727,30.7158849 568.450195,30.740299 568.450195,30.7891271 L568.450195,30.7891271 L568.611328,31.2725256 C568.611328,31.3018224 568.606445,31.3262365 568.59668,31.3457678 L568.59668,31.3457678 L562.620117,48.6455724 C562.151367,50.0127599 561.248047,50.7256506 559.910156,50.7842443 C559.783203,50.7842443 559.719727,50.8233068 559.719727,50.9014318 L559.719727,50.9014318 L559.719727,51.2529943 C559.719727,51.3311193 559.758789,51.3701818 559.836914,51.3701818 L559.836914,51.3701818 L567.322266,51.3701818 Z M571.775391,40.6182287 L567.454102,40.6182287 C567.307617,40.6182287 567.234375,40.5620763 567.234375,40.4497717 C567.234375,40.337467 567.253906,40.2324865 567.292969,40.1348303 L567.292969,40.1348303 L569.34375,34.1436193 C569.451172,33.8701818 569.529297,33.7334631 569.578125,33.7334631 C569.626953,33.7334631 569.700195,33.865299 569.797852,34.1289709 L569.797852,34.1289709 L571.980469,40.1348303 C572.019531,40.2324865 572.039062,40.3203771 572.039062,40.3985021 C572.039062,40.5449865 571.951172,40.6182287 571.775391,40.6182287 L571.775391,40.6182287 Z M599.763672,51.3701818 C599.841797,51.3701818 599.880859,51.3311193 599.880859,51.2529943 L599.880859,51.2529943 L599.880859,50.9014318 C599.880859,50.8233068 599.77832,50.7842443 599.573242,50.7842443 C598.21582,50.7842443 597.537109,50.1983068 597.537109,49.0264318 L597.537109,49.0264318 L597.537109,33.396549 C597.537109,32.5469396 597.717773,31.9854162 598.079102,31.7119787 C598.44043,31.4385412 598.835938,31.3018224 599.265625,31.3018224 C599.695312,31.3018224 599.910156,31.2627599 599.910156,31.1846349 L599.910156,31.1846349 L599.910156,30.8330724 C599.910156,30.7549474 599.871094,30.7158849 599.792969,30.7158849 L599.792969,30.7158849 L592.454102,30.7158849 C592.375977,30.7158849 592.336914,30.7549474 592.336914,30.8330724 L592.336914,30.8330724 L592.336914,31.1846349 C592.336914,31.2627599 592.444336,31.3018224 592.65918,31.3018224 C594.006836,31.3018224 594.680664,31.8877599 594.680664,33.0596349 L594.680664,33.0596349 L594.680664,48.6895178 C594.680664,49.5391271 594.5,50.1006506 594.138672,50.3740881 C593.777344,50.6475256 593.381836,50.7842443 592.952148,50.7842443 C592.522461,50.7842443 592.307617,50.8233068 592.307617,50.9014318 L592.307617,50.9014318 L592.307617,51.2529943 C592.307617,51.3311193 592.34668,51.3701818 592.424805,51.3701818 L592.424805,51.3701818 L599.763672,51.3701818 Z M632.959473,51.5459631 C633.179199,51.5459631 633.318359,51.4995763 633.376953,51.4068029 C633.435547,51.3140295 633.464844,51.1602209 633.464844,50.9453771 L633.464844,50.9453771 L633.464844,33.0303381 C633.464844,32.5420568 633.794434,32.1319006 634.453613,31.7998693 C635.112793,31.4678381 635.586426,31.3018224 635.874512,31.3018224 C636.162598,31.3018224 636.306641,31.2627599 636.306641,31.1846349 L636.306641,31.1846349 L636.306641,30.8330724 C636.306641,30.7549474 636.267578,30.7158849 636.189453,30.7158849 L636.189453,30.7158849 L628.572266,30.7158849 C628.494141,30.7158849 628.455078,30.7549474 628.455078,30.8330724 L628.455078,30.8330724 L628.455078,31.1846349 C628.455078,31.2627599 628.494141,31.3018224 628.572266,31.3018224 L628.572266,31.3018224 L629.319336,31.3018224 C630.295898,31.3018224 630.945312,31.599674 631.267578,32.1953771 C631.589844,32.7910803 631.750977,34.0606115 631.750977,36.0039709 L631.750977,36.0039709 L631.750977,46.0967443 C631.750977,46.1846349 631.729004,46.2285803 631.685059,46.2285803 C631.641113,46.2285803 631.609375,46.2163732 631.589844,46.1919592 C631.570312,46.1675451 631.536133,46.130924 631.487305,46.0820959 L631.487305,46.0820959 L617.585938,30.7158849 L612.224609,30.7158849 C612.146484,30.7158849 612.107422,30.7549474 612.107422,30.8330724 L612.107422,30.8330724 L612.107422,31.1846349 C612.107422,31.2627599 612.163574,31.3018224 612.275879,31.3018224 C612.388184,31.3018224 612.585938,31.3164709 612.869141,31.3457678 C614.138672,31.4727209 614.773438,31.8633459 614.773438,32.5176428 L614.773438,32.5176428 L614.773438,47.7373693 C614.773438,49.3194006 614.412109,50.2861974 613.689453,50.6377599 C613.494141,50.7354162 613.12793,50.7842443 612.59082,50.7842443 L612.59082,50.7842443 L612.253906,50.7842443 C612.15625,50.7842443 612.107422,50.8233068 612.107422,50.9014318 L612.107422,50.9014318 L612.107422,51.2529943 C612.107422,51.3311193 612.146484,51.3701818 612.224609,51.3701818 L612.224609,51.3701818 L619.841797,51.3701818 C619.919922,51.3701818 619.958984,51.3311193 619.958984,51.2529943 L619.958984,51.2529943 L619.958984,50.9014318 C619.958984,50.8233068 619.856445,50.7842443 619.651367,50.7842443 C619.446289,50.7842443 619.148438,50.7451818 618.757812,50.6670568 C617.351562,50.3838537 616.648438,49.7979162 616.648438,48.9092443 L616.648438,48.9092443 L616.648438,34.2901037 C616.648438,34.1924474 616.672852,34.1436193 616.72168,34.1436193 C616.799805,34.1436193 616.887695,34.1924474 616.985352,34.2901037 L616.985352,34.2901037 L632.087891,51.0332678 C632.234375,51.1992834 632.361328,51.3262365 632.46875,51.4141271 C632.576172,51.5020178 632.739746,51.5459631 632.959473,51.5459631 Z" id="MOUNTAIN" fill="#65584E"></path>
            <path d="M333.818145,68.6821818 C334.308811,69.1728485 335.535478,69.0501818 337.498145,68.3141818 C338.234145,67.8235152 338.724811,67.5781818 338.970145,67.5781818 C339.215478,67.5781818 340.319478,67.0875152 342.282145,66.1061818 L342.282145,66.1061818 L346.330145,63.5301818 C349.028811,62.3035152 351.236811,60.4021818 352.954145,57.8261818 C354.671478,55.2501818 355.284811,53.1035152 354.794145,51.3861818 C354.303478,49.1781818 353.444811,47.2155152 352.218145,45.4981818 C349.764811,43.2901818 345.594145,42.1861818 339.706145,42.1861818 C337.252811,42.1861818 333.695478,42.7995152 329.034145,44.0261818 C326.335478,44.2715152 324.924811,44.3328485 324.802145,44.2101818 C324.746747,44.154784 324.716367,43.7491287 324.711006,42.9932162 L324.711006,42.4590226 C324.716367,41.5529997 324.746747,40.2967195 324.802145,38.6901818 C324.924811,35.1328485 324.986145,29.5515152 324.986145,21.9461818 C324.986145,14.3408485 325.354145,10.2928485 326.090145,9.80218182 C326.090145,8.82084848 325.538145,7.47151515 324.434145,5.75418182 C323.330145,4.03684848 322.042145,2.93284848 320.570145,2.44218182 C318.852811,1.70618182 317.074145,1.03151515 315.234145,0.418181818 C313.394145,-0.195151515 312.474145,-0.133818182 312.474145,0.602181818 C312.228811,1.33818182 313.087478,3.05551515 315.050145,5.75418182 L315.050145,5.75418182 L316.522145,7.22618182 L316.522145,19.0021818 L315.050145,33.7221818 C314.559478,40.5915152 314.314145,44.0875152 314.314145,44.2101818 C314.314145,44.3328485 313.823478,44.3328485 312.842145,44.2101818 C311.860811,44.0875152 311.247478,44.0261818 311.002145,44.0261818 C310.756811,44.0261818 310.940811,44.5781818 311.554145,45.6821818 C312.167478,46.7861818 312.719478,47.4608485 313.210145,47.7061818 C313.700811,47.9515152 313.946145,48.3195152 313.946145,48.8101818 C313.946145,49.0555152 309.162145,51.1408485 299.594145,55.0661818 C295.668811,56.2928485 293.460811,56.6608485 292.970145,56.1701818 C292.479478,56.1701818 291.130145,54.2075152 288.922145,50.2821818 C287.695478,47.0928485 286.714145,44.9461818 285.978145,43.8421818 C285.242145,42.7381818 284.628811,42.1861818 284.138145,42.1861818 C284.138145,42.4315152 283.954145,43.4741818 283.586145,45.3141818 C283.218145,47.1541818 283.034145,49.0555152 283.034145,51.0181818 C283.034145,52.9808485 283.218145,54.5755152 283.586145,55.8021818 C283.954145,57.0288485 284.751478,58.5008485 285.978145,60.2181818 C287.940811,63.8981818 290.026145,65.7381818 292.234145,65.7381818 C293.706145,65.7381818 294.810145,65.3701818 295.546145,64.6341818 C296.282145,63.8981818 296.956811,63.4075152 297.570145,63.1621818 C298.183478,62.9168485 299.348811,62.2421818 301.066145,61.1381818 C302.783478,60.0341818 304.930145,58.8075152 307.506145,57.4581818 C310.082145,56.1088485 312.167478,54.8821818 313.762145,53.7781818 C315.356811,52.6741818 316.338145,52.1221818 316.706145,52.1221818 C317.074145,52.1221818 317.626145,52.4901818 318.362145,53.2261818 C319.343478,54.4528485 319.956811,55.0661818 320.202145,55.0661818 L320.202145,55.0661818 L322.042145,55.0661818 C323.268811,55.0661818 324.004811,54.7595152 324.250145,54.1461818 C324.495478,53.5328485 324.618145,52.6128485 324.618145,51.3861818 C324.618145,50.6501818 324.863478,50.0368485 325.354145,49.5461818 C325.844811,49.0555152 326.703478,48.5648485 327.930145,48.0741818 C331.610145,46.8475152 335.412811,45.9888485 339.338145,45.4981818 C342.772811,45.4981818 344.858145,45.7435152 345.594145,46.2341818 C347.311478,46.9701818 347.740811,48.3195152 346.882145,50.2821818 C346.023478,52.2448485 344.244811,55.1888485 341.546145,59.1141818 C338.847478,63.0395152 336.884811,65.5541818 335.658145,66.6581818 C334.431478,67.7621818 333.818145,68.4368485 333.818145,68.6821818 Z" id="山" fill="#43372E"></path>
            <path d="M15.0878906,51.3701818 C15.1660156,51.3701818 15.2050781,51.3311193 15.2050781,51.2529943 L15.2050781,51.2529943 L15.2050781,50.9014318 C15.2050781,50.8233068 15.1660156,50.7842443 15.0878906,50.7842443 L15.0878906,50.7842443 L14.6630859,50.7842443 C13.7060547,50.7842443 12.9370117,50.5791662 12.355957,50.1690099 C11.7749023,49.7588537 11.484375,49.2803381 11.484375,48.7334631 L11.484375,48.7334631 L11.484375,32.5176428 C11.484375,32.3125646 11.5258789,32.1978185 11.6088867,32.1734045 C11.6918945,32.1489904 11.7919922,32.1270178 11.9091797,32.1074865 L11.9091797,32.1074865 L17.5488281,32.1074865 C18.1835938,32.2442053 18.6474609,32.5982092 18.9404297,33.1694982 C19.2333984,33.7407873 19.4580078,34.5147131 19.6142578,35.4912756 C19.6435547,35.6377599 19.6972656,35.7110021 19.7753906,35.7110021 L19.7753906,35.7110021 L20.0390625,35.7110021 C20.0976562,35.7110021 20.1269531,35.6914709 20.1269531,35.6524084 L20.1269531,35.6524084 L20.1269531,35.1690099 L19.5849609,30.5986974 C19.5654297,30.4912756 19.5385742,30.3887365 19.5043945,30.2910803 C19.4702148,30.193424 19.3920898,30.1445959 19.2700195,30.1445959 C19.1479492,30.1445959 19.0478516,30.1909826 18.9697266,30.283756 C18.8916016,30.3765295 18.8085938,30.4717443 18.7207031,30.5694006 C18.6328125,30.6670568 18.3789062,30.7158849 17.9589844,30.7158849 L17.9589844,30.7158849 L2.16796875,30.7158849 C1.72851562,30.7158849 1.43066406,30.6206701 1.27441406,30.4302404 C1.11816406,30.2398107 0.971679688,30.1445959 0.834960938,30.1445959 C0.698242188,30.1445959 0.600585938,30.2959631 0.541992188,30.5986974 L0.541992188,30.5986974 L0,35.1690099 L0,35.6524084 C0,35.6914709 0.029296875,35.7110021 0.087890625,35.7110021 L0.087890625,35.7110021 L0.3515625,35.7110021 C0.4296875,35.7110021 0.483398438,35.6206701 0.512695312,35.440006 C0.541992188,35.259342 0.634765625,34.8467443 0.791015625,34.2022131 C1.07421875,33.0010412 1.66992188,32.302799 2.578125,32.1074865 L2.578125,32.1074865 L8.203125,32.1074865 C8.3203125,32.1270178 8.42041016,32.1489904 8.50341797,32.1734045 C8.58642578,32.1978185 8.62792969,32.3125646 8.62792969,32.5176428 L8.62792969,32.5176428 L8.62792969,48.7334631 C8.62792969,49.2803381 8.33740234,49.7588537 7.75634766,50.1690099 C7.17529297,50.5791662 6.40625,50.7842443 5.44921875,50.7842443 L5.44921875,50.7842443 L5.0390625,50.7842443 C4.95117188,50.7842443 4.90722656,50.8233068 4.90722656,50.9014318 L4.90722656,50.9014318 L4.90722656,51.2529943 C4.90722656,51.3311193 4.94628906,51.3701818 5.02441406,51.3701818 L5.02441406,51.3701818 L15.0878906,51.3701818 Z M34.3464844,51.3701818 C34.4148438,51.3701818 34.4490234,51.3311193 34.4490234,51.2529943 L34.4490234,51.2529943 L34.4490234,50.9014318 C34.4490234,50.8233068 34.4099609,50.7842443 34.3318359,50.7842443 C32.6033203,50.7842443 31.7390625,50.1983068 31.7390625,49.0264318 L31.7390625,49.0264318 L31.7390625,41.8926428 C31.7390625,41.7949865 31.7537109,41.7315099 31.7830078,41.7022131 C31.8123047,41.6729162 31.8757813,41.6582678 31.9734375,41.6582678 L31.9734375,41.6582678 L43.5164063,41.6582678 C43.6140625,41.6582678 43.6775391,41.6729162 43.7068359,41.7022131 C43.7361328,41.7315099 43.7507813,41.7949865 43.7507813,41.8926428 L43.7507813,41.8926428 L43.7507813,48.8799474 C43.7507813,49.6221349 43.2722656,50.1494787 42.3152344,50.4619787 C41.6902344,50.6768224 41.1335938,50.7842443 40.6453125,50.7842443 C40.1570313,50.7842443 39.9128906,50.8233068 39.9128906,50.9014318 L39.9128906,50.9014318 L39.9128906,51.2529943 C39.9128906,51.3311193 39.9519531,51.3701818 40.0300781,51.3701818 L40.0300781,51.3701818 L49.3464844,51.3701818 C49.4246094,51.3701818 49.4636719,51.3311193 49.4636719,51.2529943 L49.4636719,51.2529943 L49.4636719,50.9014318 C49.4636719,50.8233068 49.4246094,50.7842443 49.3464844,50.7842443 C47.5203125,50.7256506 46.6072266,50.037174 46.6072266,48.7188146 L46.6072266,48.7188146 L46.6072266,33.2647131 C46.6072266,31.8877599 47.3298828,31.1992834 48.7751953,31.1992834 C48.9607422,31.1992834 49.0535156,31.1699865 49.0535156,31.1113928 L49.0535156,31.1113928 L49.0535156,30.8330724 C49.0535156,30.7549474 49.0144531,30.7158849 48.9363281,30.7158849 L48.9363281,30.7158849 L40.4841797,30.7158849 C40.4158203,30.7158849 40.3816406,30.7549474 40.3816406,30.8330724 L40.3816406,30.8330724 L40.3816406,31.1113928 C40.3816406,31.1895178 40.4207031,31.2285803 40.4988281,31.2285803 C41.2898438,31.287174 41.9978516,31.4214513 42.6228516,31.6314123 C43.2478516,31.8413732 43.5945313,32.1123693 43.6628906,32.4444006 C43.6921875,32.6006506 43.7092773,32.7153967 43.7141602,32.7886388 C43.719043,32.861881 43.73125,32.9424474 43.7507813,33.0303381 L43.7507813,33.0303381 L43.7507813,40.0322912 C43.7507813,40.1299474 43.7361328,40.193424 43.7068359,40.2227209 C43.6775391,40.2520178 43.6140625,40.2666662 43.5164063,40.2666662 L43.5164063,40.2666662 L31.9734375,40.2666662 C31.8757813,40.2666662 31.8123047,40.2520178 31.7830078,40.2227209 C31.7537109,40.193424 31.7390625,40.1299474 31.7390625,40.0322912 L31.7390625,40.0322912 L31.7390625,33.2647131 C31.7390625,31.8877599 32.4373047,31.1992834 33.8337891,31.1992834 C34.0193359,31.1992834 34.1121094,31.1699865 34.1121094,31.1113928 L34.1121094,31.1113928 L34.1121094,30.8330724 C34.1121094,30.7549474 34.0730469,30.7158849 33.9949219,30.7158849 L33.9949219,30.7158849 L26.6414063,30.7158849 C26.5730469,30.7158849 26.5388672,30.7549474 26.5388672,30.8330724 L26.5388672,30.8330724 L26.5388672,31.1113928 C26.5388672,31.1895178 26.6414063,31.2334631 26.8464844,31.2432287 C28.2039063,31.3115881 28.8826172,31.9170568 28.8826172,33.0596349 L28.8826172,33.0596349 L28.8826172,48.6895178 C28.8826172,50.0860021 28.0671875,50.7842443 26.4363281,50.7842443 C26.2410156,50.7842443 26.1433594,50.8233068 26.1433594,50.9014318 L26.1433594,50.9014318 L26.1433594,51.2529943 C26.1433594,51.3311193 26.1824219,51.3701818 26.2605469,51.3701818 L26.2605469,51.3701818 L34.3464844,51.3701818 Z M62.2183594,51.3701818 C62.2964844,51.3701818 62.3355469,51.3311193 62.3355469,51.2529943 L62.3355469,51.2529943 L62.3355469,50.9014318 C62.3355469,50.8233068 62.2964844,50.7842443 62.2183594,50.7842443 L62.2183594,50.7842443 L61.8375,50.7842443 C60.8316406,50.7842443 60.0308594,50.5547521 59.4351562,50.0957678 C59.1714844,49.8906896 59.0396484,49.6611974 59.0396484,49.4072912 L59.0396484,49.4072912 L59.0396484,49.2754553 L61.2369141,42.8447912 C61.2369141,42.8350256 61.2515625,42.7959631 61.2808594,42.7276037 C61.446875,42.4053381 61.6763672,42.2442053 61.9693359,42.2442053 L61.9693359,42.2442053 L67.1695313,42.2442053 C67.4625,42.2442053 67.6675781,42.4102209 67.7847656,42.7422521 C67.8140625,42.8106115 67.8335938,42.8545568 67.8433594,42.8740881 L67.8433594,42.8740881 L70.0552734,49.1143224 C70.0748047,49.1924474 70.0845703,49.2608068 70.0845703,49.3194006 C70.0845703,50.0908849 69.4058594,50.5498693 68.0484375,50.6963537 C67.8140625,50.7158849 67.5162109,50.7354162 67.1548828,50.7549474 C66.7935547,50.7744787 66.6128906,50.8233068 66.6128906,50.9014318 L66.6128906,50.9014318 L66.6128906,51.2529943 C66.6128906,51.3311193 66.6519531,51.3701818 66.7300781,51.3701818 L66.7300781,51.3701818 L75.6949219,51.3701818 C75.7730469,51.3701818 75.8121094,51.3311193 75.8121094,51.2529943 L75.8121094,51.2529943 L75.8121094,50.9160803 C75.8121094,50.8281896 75.7730469,50.7842443 75.6949219,50.7842443 C75.3238281,50.7842443 74.9136719,50.6719396 74.4644531,50.4473303 C73.9273438,50.2324865 73.5416016,49.9248693 73.3072266,49.5244787 C73.1998047,49.3486974 73.1045898,49.1533849 73.021582,48.9385412 C72.9385742,48.7236974 72.8287109,48.4844396 72.6919922,48.2207678 L72.6919922,48.2207678 L66.4957031,30.8330724 C66.4761719,30.7842443 66.4493164,30.7549474 66.4151367,30.7451818 C66.380957,30.7354162 66.3541016,30.7256506 66.3345703,30.7158849 L66.3345703,30.7158849 L63.4048828,30.7158849 C63.3658203,30.7158849 63.3462891,30.740299 63.3462891,30.7891271 L63.3462891,30.7891271 L63.5074219,31.2725256 C63.5074219,31.3018224 63.5025391,31.3262365 63.4927734,31.3457678 L63.4927734,31.3457678 L57.5162109,48.6455724 C57.0474609,50.0127599 56.1441406,50.7256506 54.80625,50.7842443 C54.6792969,50.7842443 54.6158203,50.8233068 54.6158203,50.9014318 L54.6158203,50.9014318 L54.6158203,51.2529943 C54.6158203,51.3311193 54.6548828,51.3701818 54.7330078,51.3701818 L54.7330078,51.3701818 L62.2183594,51.3701818 Z M66.6714844,40.6182287 L62.3501953,40.6182287 C62.2037109,40.6182287 62.1304688,40.5620763 62.1304688,40.4497717 C62.1304688,40.337467 62.15,40.2324865 62.1890625,40.1348303 L62.1890625,40.1348303 L64.2398438,34.1436193 C64.3472656,33.8701818 64.4253906,33.7334631 64.4742188,33.7334631 C64.5230469,33.7334631 64.5962891,33.865299 64.6939453,34.1289709 L64.6939453,34.1289709 L66.8765625,40.1348303 C66.915625,40.2324865 66.9351563,40.3203771 66.9351563,40.3985021 C66.9351563,40.5449865 66.8472656,40.6182287 66.6714844,40.6182287 L66.6714844,40.6182287 Z M96.1107422,51.3701818 C96.1888672,51.3701818 96.2279297,51.3311193 96.2279297,51.2529943 L96.2279297,51.2529943 L96.2279297,50.9014318 C96.2279297,50.8233068 96.1888672,50.7842443 96.1107422,50.7842443 L96.1107422,50.7842443 L95.6859375,50.7842443 C94.7289062,50.7842443 93.9598633,50.5791662 93.3788086,50.1690099 C92.7977539,49.7588537 92.5072266,49.2803381 92.5072266,48.7334631 L92.5072266,48.7334631 L92.5072266,32.5176428 C92.5072266,32.3125646 92.5487305,32.1978185 92.6317383,32.1734045 C92.7147461,32.1489904 92.8148437,32.1270178 92.9320312,32.1074865 L92.9320312,32.1074865 L98.5716797,32.1074865 C99.2064453,32.2442053 99.6703125,32.5982092 99.9632812,33.1694982 C100.25625,33.7407873 100.480859,34.5147131 100.637109,35.4912756 C100.666406,35.6377599 100.720117,35.7110021 100.798242,35.7110021 L100.798242,35.7110021 L101.061914,35.7110021 C101.120508,35.7110021 101.149805,35.6914709 101.149805,35.6524084 L101.149805,35.6524084 L101.149805,35.1690099 L100.607812,30.5986974 C100.588281,30.4912756 100.561426,30.3887365 100.527246,30.2910803 C100.493066,30.193424 100.414941,30.1445959 100.292871,30.1445959 C100.170801,30.1445959 100.070703,30.1909826 99.9925781,30.283756 C99.9144531,30.3765295 99.8314453,30.4717443 99.7435547,30.5694006 C99.6556641,30.6670568 99.4017578,30.7158849 98.9818359,30.7158849 L98.9818359,30.7158849 L83.1908203,30.7158849 C82.7513672,30.7158849 82.4535156,30.6206701 82.2972656,30.4302404 C82.1410156,30.2398107 81.9945312,30.1445959 81.8578125,30.1445959 C81.7210937,30.1445959 81.6234375,30.2959631 81.5648437,30.5986974 L81.5648437,30.5986974 L81.0228516,35.1690099 L81.0228516,35.6524084 C81.0228516,35.6914709 81.0521484,35.7110021 81.1107422,35.7110021 L81.1107422,35.7110021 L81.3744141,35.7110021 C81.4525391,35.7110021 81.50625,35.6206701 81.5355469,35.440006 C81.5648437,35.259342 81.6576172,34.8467443 81.8138672,34.2022131 C82.0970703,33.0010412 82.6927734,32.302799 83.6009766,32.1074865 L83.6009766,32.1074865 L89.2259766,32.1074865 C89.3431641,32.1270178 89.4432617,32.1489904 89.5262695,32.1734045 C89.6092773,32.1978185 89.6507812,32.3125646 89.6507812,32.5176428 L89.6507812,32.5176428 L89.6507812,48.7334631 C89.6507812,49.2803381 89.3602539,49.7588537 88.7791992,50.1690099 C88.1981445,50.5791662 87.4291016,50.7842443 86.4720703,50.7842443 L86.4720703,50.7842443 L86.0619141,50.7842443 C85.9740234,50.7842443 85.9300781,50.8233068 85.9300781,50.9014318 L85.9300781,50.9014318 L85.9300781,51.2529943 C85.9300781,51.3311193 85.9691406,51.3701818 86.0472656,51.3701818 L86.0472656,51.3701818 L96.1107422,51.3701818 Z M118.972852,51.7656896 C119.793164,51.7656896 120.701367,51.6558263 121.697461,51.4360998 C122.693555,51.2163732 123.423535,51.0552404 123.887402,50.9527013 C124.35127,50.8501623 124.710156,50.7988928 124.964062,50.7988928 C125.217969,50.7988928 125.440137,50.8208654 125.630566,50.8648107 C125.820996,50.908756 125.940625,50.8916662 125.989453,50.8135412 L125.989453,50.8135412 L128.010938,46.3604162 C128.069531,46.2529943 128.098828,46.1406896 128.098828,46.0235021 C128.098828,45.9063146 128.05,45.8477209 127.952344,45.8477209 L127.952344,45.8477209 L127.761914,45.8477209 C127.664258,45.8477209 127.605664,45.8770178 127.586133,45.9356115 C126.853711,47.2832678 125.84541,48.4209631 124.56123,49.3486974 C123.277051,50.2764318 121.853711,50.740299 120.291211,50.740299 C117.429883,50.740299 115.166699,49.7295568 113.50166,47.7080724 C111.836621,45.6865881 111.004102,43.2671545 111.004102,40.4497717 C111.004102,37.6323888 111.760937,35.3692053 113.274609,33.6602209 C114.788281,31.9512365 116.887891,31.0967443 119.573437,31.0967443 C122.551953,31.0967443 124.773633,32.5664709 126.238477,35.505924 C126.248242,35.5352209 126.270215,35.5791662 126.304395,35.6377599 C126.338574,35.6963537 126.372754,35.7598303 126.406934,35.8281896 C126.441113,35.896549 126.472852,35.962467 126.502148,36.0259435 C126.531445,36.0894201 126.560742,36.143131 126.590039,36.1870763 C126.619336,36.2310217 126.721875,36.2529943 126.897656,36.2529943 C127.073438,36.2529943 127.161328,36.2041662 127.161328,36.1065099 L127.161328,36.1065099 L127.161328,31.5508459 C127.161328,31.3848303 127.102734,31.3018224 126.985547,31.3018224 L126.985547,31.3018224 L126.531445,31.3018224 L126.091992,31.4190099 C126.004102,31.4190099 125.767285,31.3457678 125.381543,31.1992834 C124.995801,31.052799 124.524609,30.9111974 123.967969,30.7744787 C122.132031,30.3252599 120.545117,30.1006506 119.207227,30.1006506 C118.230664,30.1006506 117.254102,30.2227209 116.277539,30.4668615 C113.211133,31.2285803 110.916211,32.8692053 109.392773,35.3887365 C108.347852,37.1074865 107.825391,39.0264318 107.825391,41.1455724 C107.825391,43.2647131 108.347852,45.127506 109.392773,46.7339513 C110.437695,48.3403967 111.831738,49.580631 113.574902,50.4546545 C115.318066,51.3286779 117.117383,51.7656896 118.972852,51.7656896 Z M142.508789,51.3701818 C142.577148,51.3701818 142.611328,51.3311193 142.611328,51.2529943 L142.611328,51.2529943 L142.611328,50.9014318 C142.611328,50.8233068 142.572266,50.7842443 142.494141,50.7842443 C140.765625,50.7842443 139.901367,50.1983068 139.901367,49.0264318 L139.901367,49.0264318 L139.901367,41.8926428 C139.901367,41.7949865 139.916016,41.7315099 139.945312,41.7022131 C139.974609,41.6729162 140.038086,41.6582678 140.135742,41.6582678 L140.135742,41.6582678 L151.678711,41.6582678 C151.776367,41.6582678 151.839844,41.6729162 151.869141,41.7022131 C151.898438,41.7315099 151.913086,41.7949865 151.913086,41.8926428 L151.913086,41.8926428 L151.913086,48.8799474 C151.913086,49.6221349 151.43457,50.1494787 150.477539,50.4619787 C149.852539,50.6768224 149.295898,50.7842443 148.807617,50.7842443 C148.319336,50.7842443 148.075195,50.8233068 148.075195,50.9014318 L148.075195,50.9014318 L148.075195,51.2529943 C148.075195,51.3311193 148.114258,51.3701818 148.192383,51.3701818 L148.192383,51.3701818 L157.508789,51.3701818 C157.586914,51.3701818 157.625977,51.3311193 157.625977,51.2529943 L157.625977,51.2529943 L157.625977,50.9014318 C157.625977,50.8233068 157.586914,50.7842443 157.508789,50.7842443 C155.682617,50.7256506 154.769531,50.037174 154.769531,48.7188146 L154.769531,48.7188146 L154.769531,33.2647131 C154.769531,31.8877599 155.492188,31.1992834 156.9375,31.1992834 C157.123047,31.1992834 157.21582,31.1699865 157.21582,31.1113928 L157.21582,31.1113928 L157.21582,30.8330724 C157.21582,30.7549474 157.176758,30.7158849 157.098633,30.7158849 L157.098633,30.7158849 L148.646484,30.7158849 C148.578125,30.7158849 148.543945,30.7549474 148.543945,30.8330724 L148.543945,30.8330724 L148.543945,31.1113928 C148.543945,31.1895178 148.583008,31.2285803 148.661133,31.2285803 C149.452148,31.287174 150.160156,31.4214513 150.785156,31.6314123 C151.410156,31.8413732 151.756836,32.1123693 151.825195,32.4444006 C151.854492,32.6006506 151.871582,32.7153967 151.876465,32.7886388 C151.881348,32.861881 151.893555,32.9424474 151.913086,33.0303381 L151.913086,33.0303381 L151.913086,40.0322912 C151.913086,40.1299474 151.898438,40.193424 151.869141,40.2227209 C151.839844,40.2520178 151.776367,40.2666662 151.678711,40.2666662 L151.678711,40.2666662 L140.135742,40.2666662 C140.038086,40.2666662 139.974609,40.2520178 139.945312,40.2227209 C139.916016,40.193424 139.901367,40.1299474 139.901367,40.0322912 L139.901367,40.0322912 L139.901367,33.2647131 C139.901367,31.8877599 140.599609,31.1992834 141.996094,31.1992834 C142.181641,31.1992834 142.274414,31.1699865 142.274414,31.1113928 L142.274414,31.1113928 L142.274414,30.8330724 C142.274414,30.7549474 142.235352,30.7158849 142.157227,30.7158849 L142.157227,30.7158849 L134.803711,30.7158849 C134.735352,30.7158849 134.701172,30.7549474 134.701172,30.8330724 L134.701172,30.8330724 L134.701172,31.1113928 C134.701172,31.1895178 134.803711,31.2334631 135.008789,31.2432287 C136.366211,31.3115881 137.044922,31.9170568 137.044922,33.0596349 L137.044922,33.0596349 L137.044922,48.6895178 C137.044922,50.0860021 136.229492,50.7842443 134.598633,50.7842443 C134.40332,50.7842443 134.305664,50.8233068 134.305664,50.9014318 L134.305664,50.9014318 L134.305664,51.2529943 C134.305664,51.3311193 134.344727,51.3701818 134.422852,51.3701818 L134.422852,51.3701818 L142.508789,51.3701818 Z M184.043555,51.3701818 C184.111914,51.3701818 184.146094,51.3311193 184.146094,51.2529943 L184.146094,51.2529943 L184.146094,50.9014318 C184.146094,50.8233068 184.107031,50.7842443 184.028906,50.7842443 C182.300391,50.7842443 181.436133,50.1983068 181.436133,49.0264318 L181.436133,49.0264318 L181.436133,41.8926428 C181.436133,41.7949865 181.450781,41.7315099 181.480078,41.7022131 C181.509375,41.6729162 181.572852,41.6582678 181.670508,41.6582678 L181.670508,41.6582678 L193.213477,41.6582678 C193.311133,41.6582678 193.374609,41.6729162 193.403906,41.7022131 C193.433203,41.7315099 193.447852,41.7949865 193.447852,41.8926428 L193.447852,41.8926428 L193.447852,48.8799474 C193.447852,49.6221349 192.969336,50.1494787 192.012305,50.4619787 C191.387305,50.6768224 190.830664,50.7842443 190.342383,50.7842443 C189.854102,50.7842443 189.609961,50.8233068 189.609961,50.9014318 L189.609961,50.9014318 L189.609961,51.2529943 C189.609961,51.3311193 189.649023,51.3701818 189.727148,51.3701818 L189.727148,51.3701818 L199.043555,51.3701818 C199.12168,51.3701818 199.160742,51.3311193 199.160742,51.2529943 L199.160742,51.2529943 L199.160742,50.9014318 C199.160742,50.8233068 199.12168,50.7842443 199.043555,50.7842443 C197.217383,50.7256506 196.304297,50.037174 196.304297,48.7188146 L196.304297,48.7188146 L196.304297,33.2647131 C196.304297,31.8877599 197.026953,31.1992834 198.472266,31.1992834 C198.657813,31.1992834 198.750586,31.1699865 198.750586,31.1113928 L198.750586,31.1113928 L198.750586,30.8330724 C198.750586,30.7549474 198.711523,30.7158849 198.633398,30.7158849 L198.633398,30.7158849 L190.18125,30.7158849 C190.112891,30.7158849 190.078711,30.7549474 190.078711,30.8330724 L190.078711,30.8330724 L190.078711,31.1113928 C190.078711,31.1895178 190.117773,31.2285803 190.195898,31.2285803 C190.986914,31.287174 191.694922,31.4214513 192.319922,31.6314123 C192.944922,31.8413732 193.291602,32.1123693 193.359961,32.4444006 C193.389258,32.6006506 193.406348,32.7153967 193.41123,32.7886388 C193.416113,32.861881 193.42832,32.9424474 193.447852,33.0303381 L193.447852,33.0303381 L193.447852,40.0322912 C193.447852,40.1299474 193.433203,40.193424 193.403906,40.2227209 C193.374609,40.2520178 193.311133,40.2666662 193.213477,40.2666662 L193.213477,40.2666662 L181.670508,40.2666662 C181.572852,40.2666662 181.509375,40.2520178 181.480078,40.2227209 C181.450781,40.193424 181.436133,40.1299474 181.436133,40.0322912 L181.436133,40.0322912 L181.436133,33.2647131 C181.436133,31.8877599 182.134375,31.1992834 183.530859,31.1992834 C183.716406,31.1992834 183.80918,31.1699865 183.80918,31.1113928 L183.80918,31.1113928 L183.80918,30.8330724 C183.80918,30.7549474 183.770117,30.7158849 183.691992,30.7158849 L183.691992,30.7158849 L176.338477,30.7158849 C176.270117,30.7158849 176.235938,30.7549474 176.235938,30.8330724 L176.235938,30.8330724 L176.235938,31.1113928 C176.235938,31.1895178 176.338477,31.2334631 176.543555,31.2432287 C177.900977,31.3115881 178.579688,31.9170568 178.579688,33.0596349 L178.579688,33.0596349 L178.579688,48.6895178 C178.579688,50.0860021 177.764258,50.7842443 176.133398,50.7842443 C175.938086,50.7842443 175.84043,50.8233068 175.84043,50.9014318 L175.84043,50.9014318 L175.84043,51.2529943 C175.84043,51.3311193 175.879492,51.3701818 175.957617,51.3701818 L175.957617,51.3701818 L184.043555,51.3701818 Z M217.423242,51.7656896 C218.516992,51.7656896 219.615625,51.5557287 220.719141,51.1358068 C224.000391,49.9053381 225.641016,47.146549 225.641016,42.8594396 L225.641016,42.8594396 L225.641016,33.2647131 C225.641016,33.1182287 225.66543,32.9619787 225.714258,32.7959631 C225.997461,31.7998693 226.778711,31.3018224 228.058008,31.3018224 C228.272852,31.3018224 228.380273,31.2627599 228.380273,31.1846349 L228.380273,31.1846349 L228.380273,30.8330724 C228.380273,30.7549474 228.341211,30.7158849 228.263086,30.7158849 L228.263086,30.7158849 L221.056055,30.7158849 C220.97793,30.7158849 220.938867,30.7549474 220.938867,30.8330724 L220.938867,30.8330724 L220.938867,31.1846349 C220.938867,31.2627599 220.97793,31.3018224 221.056055,31.3018224 C222.530664,31.3018224 223.47793,31.7852209 223.897852,32.7520178 C224.063867,33.1133459 224.146875,33.7578771 224.146875,34.6856115 L224.146875,34.6856115 L224.146875,44.0020178 C224.146875,45.9844396 223.480371,47.5347326 222.147363,48.6528967 C220.814355,49.7710607 219.107812,50.3301428 217.027734,50.3301428 C215.025781,50.3301428 213.385156,49.7173498 212.105859,48.4917638 C210.826562,47.2661779 210.186914,45.6865881 210.186914,43.7529943 L210.186914,43.7529943 L210.186914,33.2647131 C210.186914,31.9561193 211.007227,31.3018224 212.647852,31.3018224 C212.833398,31.3018224 212.926172,31.2627599 212.926172,31.1846349 L212.926172,31.1846349 L212.926172,30.8330724 C212.926172,30.7549474 212.887109,30.7158849 212.808984,30.7158849 L212.808984,30.7158849 L204.869531,30.7158849 C204.801172,30.7158849 204.766992,30.7549474 204.766992,30.8330724 L204.766992,30.8330724 L204.766992,31.1846349 C204.766992,31.2627599 204.869531,31.3018224 205.074609,31.3018224 C205.279687,31.3018224 205.528711,31.3408849 205.82168,31.4190099 C206.827539,31.6826818 207.330469,32.2295568 207.330469,33.0596349 L207.330469,33.0596349 L207.330469,44.7783849 C207.330469,46.3311193 207.808984,47.6348303 208.766016,48.6895178 C210.621484,50.740299 213.507227,51.7656896 217.423242,51.7656896 Z M248.957227,51.3701818 C249.035352,51.3701818 249.074414,51.3311193 249.074414,51.2529943 L249.074414,51.2529943 L249.074414,50.9014318 C249.074414,50.8233068 249.035352,50.7842443 248.957227,50.7842443 L248.957227,50.7842443 L248.532422,50.7842443 C247.575391,50.7842443 246.806348,50.5791662 246.225293,50.1690099 C245.644238,49.7588537 245.353711,49.2803381 245.353711,48.7334631 L245.353711,48.7334631 L245.353711,32.5176428 C245.353711,32.3125646 245.395215,32.1978185 245.478223,32.1734045 C245.56123,32.1489904 245.661328,32.1270178 245.778516,32.1074865 L245.778516,32.1074865 L251.418164,32.1074865 C252.05293,32.2442053 252.516797,32.5982092 252.809766,33.1694982 C253.102734,33.7407873 253.327344,34.5147131 253.483594,35.4912756 C253.512891,35.6377599 253.566602,35.7110021 253.644727,35.7110021 L253.644727,35.7110021 L253.908398,35.7110021 C253.966992,35.7110021 253.996289,35.6914709 253.996289,35.6524084 L253.996289,35.6524084 L253.996289,35.1690099 L253.454297,30.5986974 C253.434766,30.4912756 253.40791,30.3887365 253.37373,30.2910803 C253.339551,30.193424 253.261426,30.1445959 253.139355,30.1445959 C253.017285,30.1445959 252.917188,30.1909826 252.839063,30.283756 C252.760938,30.3765295 252.67793,30.4717443 252.590039,30.5694006 C252.502148,30.6670568 252.248242,30.7158849 251.82832,30.7158849 L251.82832,30.7158849 L236.037305,30.7158849 C235.597852,30.7158849 235.3,30.6206701 235.14375,30.4302404 C234.9875,30.2398107 234.841016,30.1445959 234.704297,30.1445959 C234.567578,30.1445959 234.469922,30.2959631 234.411328,30.5986974 L234.411328,30.5986974 L233.869336,35.1690099 L233.869336,35.6524084 C233.869336,35.6914709 233.898633,35.7110021 233.957227,35.7110021 L233.957227,35.7110021 L234.220898,35.7110021 C234.299023,35.7110021 234.352734,35.6206701 234.382031,35.440006 C234.411328,35.259342 234.504102,34.8467443 234.660352,34.2022131 C234.943555,33.0010412 235.539258,32.302799 236.447461,32.1074865 L236.447461,32.1074865 L242.072461,32.1074865 C242.189648,32.1270178 242.289746,32.1489904 242.372754,32.1734045 C242.455762,32.1978185 242.497266,32.3125646 242.497266,32.5176428 L242.497266,32.5176428 L242.497266,48.7334631 C242.497266,49.2803381 242.206738,49.7588537 241.625684,50.1690099 C241.044629,50.5791662 240.275586,50.7842443 239.318555,50.7842443 L239.318555,50.7842443 L238.908398,50.7842443 C238.820508,50.7842443 238.776563,50.8233068 238.776563,50.9014318 L238.776563,50.9014318 L238.776563,51.2529943 C238.776563,51.3311193 238.815625,51.3701818 238.89375,51.3701818 L238.89375,51.3701818 L248.957227,51.3701818 Z" id="THATCHHUT" fill="#65584E"></path>
        </g>
    </g>
</svg>